HIERARCHY
ROOT Hips
{
  OFFSET -125.086 92.215 135.881
  CHANNELS 6 Xposition Yposition Zposition Zrotation Xrotation Yrotation
  JOINT LeftUpLeg
  {
    OFFSET 8.64259 1.95398 -2.38835
    CHANNELS 3 Zrotation Xrotation Yrotation
    JOINT LeftLeg
    {
      OFFSET 43.7702 0 0
      CHANNELS 3 Zrotation Xrotation Yrotation
      JOINT LeftFoot
      {
        OFFSET 40.6238 0 0
        CHANNELS 3 Zrotation Xrotation Yrotation
        JOINT LeftToeBase
        {
          OFFSET 12.7242 0 0
          CHANNELS 3 Zrotation Xrotation Yrotation
          End Site
          {
            OFFSET 0 0 0
          }
        }
      }
    }
  }
  JOINT RightUpLeg
  {
    OFFSET -8.2249 1.95398 -2.59336
    CHANNELS 3 Zrotation Xrotation Yrotation
    JOINT RightLeg
    {
      OFFSET 43.5653 0 0
      CHANNELS 3 Zrotation Xrotation Yrotation
      JOINT RightFoot
      {
        OFFSET 40.6238 0 0
        CHANNELS 3 Zrotation Xrotation Yrotation
        JOINT RightToeBase
        {
          OFFSET 12.7242 0 0
          CHANNELS 3 Zrotation Xrotation Yrotation
          End Site
          {
            OFFSET 0 0 0
          }
        }
      }
    }
  }
  JOINT Spine
  {
    OFFSET 0.165834 0.87714 6.61349
    CHANNELS 3 Zrotation Xrotation Yrotation
    JOINT Spine1
    {
      OFFSET 7.38963 1.71661e-005 0
      CHANNELS 3 Zrotation Xrotation Yrotation
      JOINT Spine2
      {
        OFFSET 11.9445 1.14441e-005 0
        CHANNELS 3 Zrotation Xrotation Yrotation
        JOINT Spine3
        {
          OFFSET 14.7254 4.19617e-005 0
          CHANNELS 3 Zrotation Xrotation Yrotation
          JOINT Spine4
          {
            OFFSET 10.9679 0 0
            CHANNELS 3 Zrotation Xrotation Yrotation
            JOINT RightShoulder
            {
              OFFSET 2.46616 -1.6653 3.69651
              CHANNELS 3 Zrotation Xrotation Yrotation
              JOINT RightArm
              {
                OFFSET 13.0012 0 0
                CHANNELS 3 Zrotation Xrotation Yrotation
                JOINT RightForeArm
                {
                  OFFSET 28.7848 1.52588e-005 0
                  CHANNELS 3 Zrotation Xrotation Yrotation
                  JOINT RightHand
                  {
                    OFFSET 26.5688 1.52588e-005 0
                    CHANNELS 3 Zrotation Xrotation Yrotation
                    End Site
                    {
                      OFFSET 0 0 0
                    }
                  }
                }
              }
            }
            JOINT LeftShoulder
            {
              OFFSET 2.38034 -1.29275 -3.7523
              CHANNELS 3 Zrotation Xrotation Yrotation
              JOINT LeftArm
              {
                OFFSET 16.3182 6.10352e-005 0
                CHANNELS 3 Zrotation Xrotation Yrotation
                JOINT LeftForeArm
                {
                  OFFSET 27.0901 0 0
                  CHANNELS 3 Zrotation Xrotation Yrotation
                  JOINT LeftHand
                  {
                    OFFSET 24.5451 1.52588e-005 0
                    CHANNELS 3 Zrotation Xrotation Yrotation
                    End Site
                    {
                      OFFSET 0 0 0
                    }
                  }
                }
              }
            }
            JOINT Neck
            {
              OFFSET 5.0226 -0.0266342 0
              CHANNELS 3 Zrotation Xrotation Yrotation
              JOINT Head
              {
                OFFSET 6.69363 2.86102e-005 0
                CHANNELS 3 Zrotation Xrotation Yrotation
                End Site
                {
                  OFFSET 0 0 0
                }
              }
            }
          }
        }
      }
    }
  }
}
MOTION
Frames:	9
Frame Time:	0.0416667
17.7421 94.3119 10.1056 97.3131 -29.5128 93.334 179.7 0.15402 85.5696 -32.67 32.216 9.46048 69.5478 11.9249 13.1995 41.6943 -1.10419 1.36459 176.959 12.9828 75.113 -10.8174 -18.639 -5.36892 51.1157 2.69203 35.0865 63.8478 -4.27773 5.63085 -0.5089 7.55945 -89.5258 11.7578 -0.789366 1.02876 0.0866625 -0.743309 1.06249 -22.4485 -1.06203 0.743974 -2.43585 -1.06202 0.743974 110.726 -50.8147 -68.9754 35.605 4.57175 -3.70497 -5.32182 -33.2598 -16.0879 -12.44 -0.699952 1.39885 -72.9847 -47.1799 104.504 -35.1102 9.39197 -32.3066 23.3642 41.7819 -44.3349 -3.26246 -0.0605835 -8.22266 -5.6996 8.23796 -9.13192 -26.9432 3.50626 26.6579 
19.2291 93.9311 16.2332 96.0504 -23.3896 91.4049 177.963 -0.676859 87.0101 -34.7148 33.7309 12.9704 70.1674 12.3084 11.4105 47.3199 -1.39168 3.62897 176.757 14.0531 75.9419 -17.1971 -22.3311 -5.996 54.9566 2.31299 30.4543 60.5532 -3.6084 7.28642 -0.0545498 7.59107 -89.6424 11.6922 0.059352 0.705836 0.0211198 0.0903222 0.702533 -22.5127 -0.155525 0.691038 -2.50006 -0.155542 0.691037 109.525 -50.1285 -70.7222 34.5895 3.34501 -5.21182 -3.98388 -35.1546 -14.5174 -14.0644 -0.859912 1.96149 -71.7139 -48.9169 106.304 -36.1094 4.25761 -31.0551 20.7543 48.912 -34.0168 -5.63882 -0.00206097 -7.54822 -5.80396 11.0162 -10.071 -28.9348 4.79157 31.3556 
20.3757 93.9838 21.3227 94.3041 -15.0434 90.6218 172.048 4.40084 86.5615 -45.1543 28.3372 14.7428 67.4737 10.1829 6.09044 51.5202 -1.39236 6.70144 176.683 15.2473 77.7992 -26.6054 -16.3867 -5.99084 59.4635 1.6293 26.3942 53.1661 -3.2671 4.13836 0.132822 7.63945 -89.9407 11.594 0.292072 0.0888937 -0.0769726 0.295705 0.0759438 -22.6122 0.251855 0.172561 -2.59957 0.25185 0.172562 108.188 -48.4017 -72.587 33.8798 0.88874 -7.11047 -2.14749 -31.625 -14.5332 -14.8067 -0.939864 2.24667 -71.4568 -50.3579 106.534 -39.8148 -5.86304 -29.1548 14.608 53.1792 -14.2725 -0.319767 -0.093293 -5.91073 -6.32709 12.9397 -11.0253 -29.4931 5.59706 35.4651 
21.6105 94.327 25.257 92.7069 -4.46494 89.2627 169.307 16.1925 88.978 -56.4039 16.4483 11.4005 63.135 8.77964 8.01809 50.9812 -1.48861 5.02488 175.012 14.0474 78.8371 -29.8346 -9.8618 -4.55343 63.2336 1.4156 23.7721 48.2523 -2.96075 0.965863 0.123048 7.71864 -90.1576 11.4375 0.171228 -0.332221 -0.233465 0.156478 -0.339447 -22.7685 0.263165 -0.2654 -2.75589 0.263162 -0.265398 108.271 -47.9 -72.3948 30.5961 -0.357135 -8.27218 -2.1563 -25.7512 -17.9972 -14.1658 -0.772686 1.17721 -72.4013 -49.0922 105.23 -43.3891 -13.4812 -28.1729 12.4487 55.6868 -0.871105 1.53346 -0.102648 -4.40831 -4.33577 12.7176 -12.7568 -29.0067 5.97347 35.143 
23.2175 94.8548 27.8676 92.0407 3.82208 88.079 176.16 22.4626 87.3957 -55.5333 11.9814 5.96307 61.9894 7.65036 5.62356 52.3459 -1.69368 3.43384 172.626 11.9628 77.9105 -30.0258 -4.32446 -2.37938 64.5643 1.66493 23.5315 49.0219 -2.97537 2.09024 0.202466 7.83866 -90.1578 11.197 0.329678 -0.346392 -0.473993 0.314077 -0.360564 -23.0093 0.418506 -0.231306 -2.99665 0.41854 -0.231296 108.487 -47.9205 -72.0518 28.1818 -0.532128 -10.2496 -1.02597 -22.0971 -18.3079 -15.808 -0.97282 1.99142 -72.6052 -48.5715 104.966 -38.808 -17.0725 -23.3193 10.1498 60.9543 0.0313863 -6.09447 -0.0242862 -6.4082 -3.21348 11.5085 -13.8862 -26.6777 5.84021 34.7329 
25.5225 95.3903 29.5483 90.9964 13.175 87.4142 -177.315 23.9053 85.6304 -43.891 9.10431 1.14683 62.403 7.2685 3.5996 48.2229 -1.44937 3.71568 170.689 8.3762 78.0297 -27.8792 3.23579 -0.382169 65.076 2.04893 22.9643 49.7272 -2.95552 3.45235 0.208591 7.80316 -90.2534 11.2679 0.297163 -0.53411 -0.403112 0.273381 -0.54668 -22.9379 0.443932 -0.420114 -2.92529 0.443945 -0.420112 108.28 -47.392 -72.3161 27.2403 -0.245697 -10.0208 -0.647461 -20.7858 -18.2229 -16.1796 -0.892125 1.22997 -72.8922 -48.5946 104.521 -34.4077 -17.6794 -16.9926 11.0042 60.7372 -4.67136 -7.18515 0.023877 -7.06897 -2.85822 9.64167 -12.5109 -24.5561 5.18931 31.3638 
27.9918 95.8117 29.9228 89.5286 21.062 86.9992 -175.449 21.8391 83.958 -24.313 3.1164 -1.93688 57.6127 4.27699 5.91764 43.5407 -1.20731 4.07551 169.606 5.12676 78.3821 -24.877 9.87903 0.558843 63.9733 2.54463 24.0214 51.7837 -3.32516 2.36523 0.302187 7.72928 -90.2869 11.4163 0.467365 -0.618501 -0.25471 0.439704 -0.638479 -22.7898 0.63164 -0.44945 -2.77717 0.631662 -0.449447 108.766 -48.0455 -71.6248 26.4343 -0.0456359 -10.6999 0.10795 -21.1909 -16.3583 -15.2678 -0.850078 1.3163 -72.7664 -48.4803 104.726 -35.278 -18.1751 -12.4067 13.2901 56.053 -7.45354 -5.06878 -0.0487179 -6.32629 -0.810976 7.75801 -11.2602 -22.8062 4.29031 28.7432 
31.0618 95.7375 29.1151 87.4013 27.2475 88.123 -178.151 20.5208 83.896 -9.22216 -0.703947 -1.59663 55.9045 2.81579 7.89903 39.7969 -1.04641 5.66114 169.494 2.50528 79.7202 -22.6124 15.7431 1.08106 61.9968 3.19481 24.1957 54.313 -3.5175 3.35619 0.414142 7.62718 -90.2975 11.6213 0.684503 -0.664032 -0.0496517 0.654586 -0.693517 -22.5856 0.852396 -0.42762 -2.57295 0.8524 -0.427622 109.127 -48.7686 -71.1512 26.5594 -0.430705 -11.8443 -0.263795 -24.4957 -15.5251 -12.9422 -0.713667 1.25265 -72.5344 -49.0088 105.034 -38.1541 -19.3398 -10.0189 15.3353 57.6328 -8.33754 -8.18641 0.0618065 -7.35666 1.80078 5.86155 -11.486 -21.2225 3.2617 27.759 
35.1327 95.092 26.5886 86.0378 32.8608 90.2 -178.914 20.2418 84.0492 -7.94056 4.55496 -1.03911 51.6233 -0.132231 9.3896 40.5018 -1.06089 4.79983 169.323 -0.479298 80.9963 -22.7441 15.562 1.6007 59.542 3.42536 22.989 60.9183 -5.22221 -1.03418 0.423818 7.59044 -90.3476 11.6949 0.679903 -0.764113 0.0239185 0.645637 -0.793304 -22.5117 0.878127 -0.524447 -2.49904 0.878117 -0.52445 109.726 -49.5822 -70.3286 26.9942 -1.00032 -12.3543 -2.28335 -28.9272 -17.879 -11.5576 -0.604005 0.925744 -72.1678 -49.7415 105.522 -39.7521 -18.7279 -9.05464 17.463 62.4119 -11.4468 -17.0245 0.489085 -8.87585 4.0363 4.60525 -11.6319 -21.2588 2.4878 26.2261 
